<svg class="dblock" id="Layer_1" xmlns="http://www.w3.org/2000/svg" viewBox="0 0 138.05 54.74">
    <path id="CashFlowMatters" fill="white" class="cls-3" d="M4.45,54.74c.68,0,1.28-.1,1.79-.29s.94-.45,1.3-.79,.63-.73,.83-1.2,.33-.96,.39-1.5h-1.51c-.06,.4-.15,.76-.27,1.07s-.29,.58-.5,.8-.49,.38-.82,.5-.73,.17-1.21,.17c-.51,0-.94-.11-1.31-.32s-.67-.5-.91-.87c-.24-.37-.42-.8-.54-1.29-.12-.49-.18-1.01-.18-1.57h0v-1.16c0-.6,.07-1.15,.2-1.64,.13-.5,.32-.92,.58-1.27s.58-.62,.96-.82,.83-.29,1.33-.29c.44,0,.81,.06,1.12,.18,.31,.12,.57,.29,.79,.52s.38,.49,.5,.81,.21,.67,.27,1.07h1.51c-.06-.56-.19-1.08-.39-1.54s-.48-.87-.82-1.2-.77-.6-1.26-.79-1.06-.28-1.7-.28c-.7,0-1.34,.13-1.9,.38-.57,.25-1.05,.61-1.44,1.07-.4,.46-.7,1.02-.91,1.66-.21,.65-.32,1.37-.32,2.17H0v1.14c0,.8,.11,1.52,.32,2.16s.51,1.2,.9,1.66c.39,.46,.86,.82,1.4,1.07s1.16,.38,1.83,.38Zm8.74,0c.26,0,.51-.03,.74-.08s.45-.13,.65-.23,.39-.21,.55-.34,.32-.26,.46-.4c.02,.17,.05,.34,.08,.5s.07,.29,.12,.39h1.52v-.12c-.1-.23-.17-.5-.22-.82s-.07-.62-.07-.9h0v-3.93c0-.47-.08-.89-.23-1.24s-.37-.65-.65-.89c-.28-.24-.61-.41-1-.53s-.81-.18-1.27-.18c-.51,0-.97,.07-1.39,.22s-.77,.34-1.06,.58c-.29,.24-.52,.5-.68,.8s-.24,.6-.24,.9h1.45c0-.18,.04-.35,.13-.51s.21-.3,.37-.43,.35-.22,.57-.29,.47-.11,.74-.11c.59,0,1.03,.15,1.34,.45s.45,.7,.45,1.21h0v.66h-1.44c-.58,0-1.1,.06-1.57,.18s-.87,.3-1.2,.53-.58,.52-.76,.87-.27,.75-.27,1.2c0,.35,.07,.68,.2,.98s.33,.57,.57,.79,.55,.4,.9,.53,.74,.2,1.18,.2Zm.21-1.26c-.27,0-.5-.04-.7-.11s-.37-.18-.51-.3-.24-.28-.31-.46-.1-.37-.1-.57c0-.52,.22-.91,.67-1.17s1.09-.39,1.91-.39h1.2v1.73c-.08,.16-.19,.32-.32,.47s-.3,.29-.49,.4-.4,.21-.62,.29-.47,.11-.73,.11Zm8.99,1.26c.49,0,.93-.06,1.34-.18s.74-.29,1.03-.51,.51-.48,.66-.79,.23-.65,.23-1.02c0-.34-.06-.65-.18-.91s-.31-.49-.56-.69c-.25-.2-.57-.38-.95-.53s-.83-.29-1.34-.41c-.4-.09-.73-.18-.98-.26s-.45-.18-.6-.28-.24-.21-.3-.34-.08-.27-.08-.42,.03-.31,.09-.46,.16-.28,.3-.4,.31-.21,.52-.28,.47-.11,.77-.11c.29,0,.54,.04,.76,.13s.4,.2,.55,.34,.27,.29,.34,.47,.12,.35,.12,.52h1.45c0-.36-.07-.71-.22-1.03s-.36-.6-.64-.84c-.28-.24-.62-.43-1.02-.57s-.85-.21-1.36-.21c-.47,0-.9,.07-1.29,.2s-.71,.31-.98,.54-.48,.49-.63,.79-.22,.62-.22,.95,.07,.65,.21,.91,.34,.49,.61,.68,.58,.35,.96,.49c.38,.14,.8,.25,1.27,.35,.42,.09,.75,.18,1.01,.29s.45,.22,.59,.34,.23,.25,.28,.39,.07,.29,.07,.44c0,.17-.04,.33-.12,.48s-.19,.28-.35,.39-.34,.2-.57,.26-.48,.09-.78,.09c-.23,0-.46-.03-.69-.08s-.44-.14-.63-.27-.35-.29-.48-.49-.2-.45-.21-.75h-1.45c0,.35,.08,.69,.23,1.02s.37,.62,.66,.88,.65,.46,1.08,.62,.93,.23,1.49,.23Zm6.59-.16v-6.02c.2-.41,.47-.73,.83-.98s.77-.38,1.23-.38c.28,0,.52,.03,.73,.1s.39,.17,.53,.32,.25,.33,.32,.57,.11,.51,.11,.84h0v5.55h1.45v-5.54c0-.55-.06-1.02-.19-1.41s-.31-.71-.54-.95c-.23-.25-.52-.43-.85-.54s-.71-.17-1.12-.17c-.52,0-.99,.1-1.41,.31s-.78,.5-1.09,.87h0v-4.57h-1.45v12h1.45Zm13.05,0v-5.02h4.77v-1.23h-4.77v-3.89h5.55v-1.23h-7.05v11.38h1.5Zm8.69,0v-12h-1.45v12h1.45Zm5.78,.16c.59,0,1.13-.11,1.6-.32s.88-.52,1.21-.9,.59-.84,.77-1.36,.27-1.09,.27-1.71h0v-.17c0-.61-.09-1.18-.27-1.71s-.43-.98-.77-1.36-.74-.69-1.21-.91-1.01-.33-1.61-.33-1.12,.11-1.59,.33-.88,.52-1.21,.91-.59,.84-.77,1.36-.27,1.09-.27,1.71h0v.17c0,.61,.09,1.18,.27,1.71s.44,.98,.77,1.36,.74,.68,1.21,.9,1.01,.32,1.6,.32Zm0-1.18c-.4,0-.75-.08-1.05-.25s-.55-.39-.75-.68-.35-.61-.45-.99-.15-.77-.15-1.2h0v-.17c0-.42,.05-.81,.15-1.19s.25-.71,.45-.99,.45-.51,.75-.68,.64-.25,1.04-.25,.75,.08,1.05,.25,.55,.4,.75,.68,.35,.61,.45,.99,.15,.77,.15,1.19h0v.17c0,.42-.05,.82-.15,1.2s-.25,.7-.45,.99-.45,.51-.75,.68-.65,.25-1.05,.25Zm8.52,1.02l2-6.41,2.05,6.41h1.17l2.46-8.45h-1.45l-1.62,6.46-2.01-6.46h-1.16l-1.97,6.33-1.66-6.33h-1.44l2.45,8.45h1.17Zm14.84,0v-4.43l-.15-4.76,3.73,9.19h1.15l3.73-9.21-.14,4.78v4.43h1.5v-11.38h-1.95l-3.72,9.28-3.72-9.28h-1.94v11.38h1.5Zm14.85,.16c.26,0,.51-.03,.74-.08s.45-.13,.65-.23,.39-.21,.55-.34,.32-.26,.46-.4c.02,.17,.05,.34,.08,.5s.07,.29,.12,.39h1.52v-.12c-.1-.23-.17-.5-.22-.82s-.07-.62-.07-.9h0v-3.93c0-.47-.08-.89-.23-1.24s-.37-.65-.65-.89c-.28-.24-.61-.41-1-.53s-.81-.18-1.27-.18c-.51,0-.97,.07-1.39,.22s-.77,.34-1.06,.58c-.29,.24-.52,.5-.68,.8s-.24,.6-.24,.9h1.45c0-.18,.04-.35,.13-.51s.21-.3,.37-.43,.35-.22,.57-.29,.47-.11,.74-.11c.59,0,1.03,.15,1.34,.45s.45,.7,.45,1.21h0v.66h-1.44c-.58,0-1.1,.06-1.57,.18s-.87,.3-1.2,.53-.58,.52-.76,.87-.27,.75-.27,1.2c0,.35,.07,.68,.2,.98s.33,.57,.57,.79,.55,.4,.9,.53,.74,.2,1.18,.2Zm.21-1.26c-.27,0-.5-.04-.7-.11s-.37-.18-.51-.3-.24-.28-.31-.46-.1-.37-.1-.57c0-.52,.22-.91,.67-1.17s1.09-.39,1.91-.39h1.2v1.73c-.08,.16-.19,.32-.32,.47s-.3,.29-.49,.4-.4,.21-.62,.29-.47,.11-.73,.11Zm8.35,1.26c.26,0,.48-.02,.66-.05s.33-.07,.45-.1h0v-1.17c-.07,.02-.18,.04-.31,.06s-.26,.04-.38,.04-.24-.01-.35-.04-.21-.07-.3-.14-.15-.18-.21-.31-.08-.31-.08-.53h0v-5.24h1.58v-1.12h-1.58v-2.05h-1.45v2.05h-1.54v1.12h1.54v5.23c0,.42,.05,.78,.16,1.07s.24,.52,.42,.7,.38,.3,.62,.38,.49,.11,.75,.11Zm5.23,0c.26,0,.48-.02,.66-.05s.33-.07,.45-.1h0v-1.17c-.07,.02-.18,.04-.31,.06s-.26,.04-.38,.04-.24-.01-.35-.04-.21-.07-.3-.14-.15-.18-.21-.31-.08-.31-.08-.53h0v-5.24h1.58v-1.12h-1.58v-2.05h-1.45v2.05h-1.54v1.12h1.54v5.23c0,.42,.05,.78,.16,1.07s.24,.52,.42,.7,.38,.3,.62,.38,.49,.11,.75,.11Zm6.27,0c.42,0,.8-.05,1.13-.14s.63-.21,.89-.37,.48-.33,.68-.52,.36-.4,.49-.61h0l-.88-.69c-.27,.34-.58,.62-.93,.83s-.79,.31-1.3,.31c-.39,0-.73-.07-1.04-.22s-.57-.34-.78-.59-.38-.54-.5-.88-.18-.7-.19-1.09h5.73v-.65c0-.59-.07-1.14-.2-1.65s-.35-.94-.63-1.31-.64-.66-1.08-.87-.96-.32-1.56-.32c-.48,0-.94,.1-1.38,.29s-.84,.48-1.18,.85-.62,.83-.82,1.37-.31,1.16-.31,1.84h0v.33c0,.59,.09,1.14,.27,1.64s.44,.93,.78,1.29,.75,.64,1.22,.85,1.01,.3,1.6,.3Zm1.85-5.16h-4.23c.05-.39,.13-.74,.26-1.04s.29-.55,.48-.76,.41-.36,.66-.46,.51-.16,.8-.16c.37,0,.68,.07,.93,.2s.45,.31,.61,.53,.28,.47,.35,.74,.12,.55,.14,.84h0v.11Zm4.56,5v-6c.16-.37,.39-.66,.71-.88s.72-.33,1.22-.33c.14,0,.26,0,.36,.01s.22,.02,.35,.04h0v-1.34c-.05-.03-.15-.05-.28-.07s-.26-.04-.36-.04c-.47,0-.87,.1-1.2,.3s-.6,.48-.82,.83h0l-.02-.98h-1.41v8.45h1.45Zm7.08,.16c.49,0,.93-.06,1.34-.18s.74-.29,1.03-.51,.51-.48,.66-.79,.23-.65,.23-1.02c0-.34-.06-.65-.18-.91s-.31-.49-.56-.69c-.25-.2-.57-.38-.95-.53s-.83-.29-1.34-.41c-.4-.09-.73-.18-.98-.26s-.45-.18-.6-.28-.24-.21-.3-.34-.08-.27-.08-.42,.03-.31,.09-.46,.16-.28,.3-.4,.31-.21,.52-.28,.47-.11,.77-.11c.29,0,.54,.04,.76,.13s.4,.2,.55,.34,.27,.29,.34,.47,.12,.35,.12,.52h1.45c0-.36-.07-.71-.22-1.03s-.36-.6-.64-.84c-.28-.24-.62-.43-1.02-.57s-.85-.21-1.36-.21c-.47,0-.9,.07-1.29,.2s-.71,.31-.98,.54-.48,.49-.63,.79-.22,.62-.22,.95,.07,.65,.21,.91,.34,.49,.61,.68,.58,.35,.96,.49c.38,.14,.8,.25,1.27,.35,.42,.09,.75,.18,1.01,.29s.45,.22,.59,.34,.23,.25,.28,.39,.07,.29,.07,.44c0,.17-.04,.33-.12,.48s-.19,.28-.35,.39-.34,.2-.57,.26-.48,.09-.78,.09c-.23,0-.46-.03-.69-.08s-.44-.14-.63-.27-.35-.29-.48-.49-.2-.45-.21-.75h-1.45c0,.35,.08,.69,.23,1.02s.37,.62,.66,.88,.65,.46,1.08,.62,.93,.23,1.49,.23Z">
    </path>
    <path id="TM" class="cls-3" fill="white" d="M133.16,47.58v-1.83h.67v-.3h-1.69v.3h.66v1.83h.37Zm2.8-1.64l-.04,.94v.7h.37v-2.13h-.48l-.61,1.63-.62-1.63h-.48v2.13h.37v-.7l-.04-.94,.63,1.64h.27l.63-1.64Z">
    </path>
    <path class="cls-2" fill="white" d="M137.77,17.62c-.18-.34-.43-.61-.75-.8-.33-.19-.68-.29-1.05-.29s-.72,.1-1.05,.29c-.32,.19-.57,.46-.76,.8-.18,.34-.27,.7-.27,1.1s.09,.75,.27,1.08c.17,.34,.42,.61,.75,.81,.32,.2,.67,.3,1.06,.3s.74-.1,1.06-.3c.33-.21,.58-.48,.75-.81,.18-.34,.27-.7,.27-1.08,0-.4-.09-.76-.28-1.1Zm-.29,2.03c-.15,.28-.37,.5-.63,.67-.27,.16-.57,.25-.88,.25s-.6-.08-.87-.25c-.27-.16-.48-.38-.64-.67s-.23-.6-.23-.93,.07-.64,.23-.93c.15-.28,.37-.51,.64-.67,.27-.16,.56-.24,.87-.24s.61,.08,.88,.25c.26,.16,.48,.38,.63,.66,.15,.29,.23,.59,.23,.93s-.08,.64-.23,.93Z">
    </path>
    <path class="cls-2" fill="white" d="M136.86,19.52v-.18c0-.3-.12-.5-.36-.6,.25-.13,.38-.31,.38-.55s-.08-.43-.25-.56c-.17-.13-.4-.19-.7-.19h-.8v2.49h.41v-.99h.51c.23,.01,.36,.1,.39,.29,0,.03,.01,.14,.01,.32s.01,.31,.04,.38h.42v-.05c-.03-.07-.05-.19-.05-.36Zm-.52-1.06c-.09,.06-.2,.1-.34,.1h-.46v-.75h.4c.2,0,.33,.03,.41,.09s.11,.16,.11,.3c0,.11-.04,.2-.12,.26Z">
    </path>
    <path class="cls-2" fill="white" d="M125.25,16.53c-5.08,0-8.91,4.15-8.91,9.66s3.98,9.66,9.26,9.66c3.11,0,5.46-1.07,7.61-3.46l.19-.22-2.09-1.87-.19,.2c-1.59,1.67-3.33,2.45-5.46,2.45-3.16,0-5.54-2.16-5.99-5.4h14.18l.02-.26c.04-.43,.04-.71,.04-.96,0-5.86-3.48-9.8-8.66-9.8Zm-5.58,8.29c.48-3.23,2.7-5.46,5.51-5.46,3.47,0,5.05,2.77,5.41,5.46h-10.92Z">
    </path>
    <path class="cls-2" fill="white" d="M112.7,24.04v11.39h-3.26v-10.77c0-3.26-1.59-5.12-4.36-5.12-2.33,0-4.69,1.62-4.69,5.26v10.63h-3.21v-10.84c0-3.16-1.62-5.05-4.34-5.05s-4.71,2.25-4.71,5.36v10.53h-3.25V16.91h3.25v2.41c1.1-1.42,2.73-2.79,5.51-2.79,2.56,0,4.6,1.17,5.8,3.3,1.59-2.22,3.65-3.3,6.3-3.3,4.29,0,6.96,2.88,6.96,7.51Z">
    </path>
    <polygon class="cls-1" fill="#f6bd3e" points="83.15 0 83.15 11.69 79.18 11.69 79.18 7.79 74.17 11.69 68.11 11.69 83.15 0">
    </polygon>
    <rect class="cls-2" fill="white" x="75.93" y="16.91" width="3.25" height="18.52"></rect>
    <path class="cls-2" fill="white" d="M66.35,19.91v10.34c0,1.71,.95,2.5,2.99,2.5,.53,0,.92-.04,1.53-.13l.35,2.79c-1.22,.24-2.16,.34-3.05,.34-3.49,0-5.19-1.91-5.19-5.85V15.68l3.37-2.62v3.89h5.54v2.96h-5.54Z">
    </path>
    <path class="cls-2" fill="white" d="M58.07,24v11.43h-3.26v-10.77c0-3.21-1.75-5.12-4.68-5.12s-5.09,2.19-5.09,5.33v10.56h-3.26V16.91h3.26v2.47c1.44-1.89,3.4-2.85,5.86-2.85,4.35,0,7.17,2.93,7.17,7.47Z">
    </path>
    <path class="cls-2" fill="white" d="M29.39,16.53c-5.08,0-8.9,4.15-8.9,9.66s3.97,9.66,9.25,9.66c3.12,0,5.47-1.07,7.61-3.46l.2-.22-2.09-1.87-.2,.2c-1.59,1.67-3.32,2.45-5.45,2.45-3.16,0-5.54-2.16-6-5.4h14.19l.02-.26c.03-.43,.03-.71,.03-.96,0-5.86-3.48-9.8-8.66-9.8Zm-5.73,8.29c.48-3.23,2.71-5.46,5.51-5.46,3.47,0,5.06,2.77,5.41,5.46h-10.92Z">
    </path>
    <path class="cls-2" fill="white" d="M17.98,32.28c-1.9,2.36-4.73,3.72-7.76,3.72C4.74,36,.29,31.55,.29,26.08s4.45-9.93,9.93-9.93c2.92,0,5.67,1.28,7.56,3.49l-2.26,1.93c-1.33-1.55-3.26-2.44-5.3-2.44-3.83,0-6.95,3.12-6.95,6.95s3.12,6.94,6.95,6.94c2.12,0,4.1-.95,5.43-2.61l2.33,1.87Z">
    </path>
</svg>